<?xml version="1.0" encoding="utf-8"?>
<!-- Generator: Adobe Illustrator 26.0.1, SVG Export Plug-In . SVG Version: 6.00 Build 0)  -->
<svg version="1.1" id="Layer_1" xmlns="http://www.w3.org/2000/svg" xmlns:xlink="http://www.w3.org/1999/xlink" x="0px" y="0px"
	 viewBox="0 0 1920 1080" style="enable-background:new 0 0 1920 1080;" xml:space="preserve">
<style type="text/css">
	.st0{fill:#FFFFFF;}
	.st1{stroke:#000000;stroke-width:40;stroke-miterlimit:10;}
	.st2{stroke:#000000;stroke-width:4;stroke-miterlimit:10;}
	.st3{fill:none;}
	.st4{font-family:'MyriadPro-Regular';}
	.st5{font-size:667.278px;}
</style>
<g>
	<rect x="227.95" y="31" class="st0" width="1463.63" height="944"/>
	<path d="M1671.58,51v904H247.95V51H1671.58 M1691.92,11H227.6c-10.85,0-19.65,8.8-19.65,19.65v944.69
		c0,10.85,8.8,19.65,19.65,19.65h1464.32c10.85,0,19.65-8.8,19.65-19.65V30.65C1711.58,19.8,1702.78,11,1691.92,11L1691.92,11z"/>
</g>
<path class="st1" d="M1025.26,756.22"/>
<g>
	<g>
		<g>
			<path d="M285.89,474.98c-0.63-6.37,0.04-12.86,2.02-19.14c4.2-13.33,13.75-24.25,26.87-30.76l375.88-186.33l15.28,28.01
				L285.89,474.98z"/>
			<path d="M699.01,212.29L305.89,407.16c-36.59,18.14-50.83,61.11-31.79,95.99l459.37-227.71L699.01,212.29L699.01,212.29z"/>
		</g>
		<g>
			<path d="M313.12,521.28c-13.12-6.5-22.67-17.43-26.87-30.76c-1.98-6.29-2.65-12.77-2.02-19.14l420.06,208.23L689,707.61
				L313.12,521.28z"/>
			<path d="M272.44,443.22c-19.03,34.87-4.8,77.85,31.79,95.99l393.11,194.87l34.46-63.14L272.44,443.22L272.44,443.22z"/>
		</g>
	</g>
	<polygon class="st2" points="726.52,738.3 753.47,745.01 845.05,219.31 818.1,212.6 	"/>
	<g>
		<g>
			<path d="M1214.05,296.69l15.28-28.01l375.88,186.33c13.12,6.5,22.67,17.43,26.87,30.76c1.98,6.29,2.65,12.77,2.02,19.14
				L1214.05,296.69z"/>
			<path d="M1220.99,242.22l-34.46,63.14l459.37,227.71c19.03-34.87,4.8-77.85-31.79-95.99L1220.99,242.22L1220.99,242.22z"/>
		</g>
		<g>
			<path d="M1215.71,709.54l420.06-208.23c0.63,6.37-0.04,12.86-2.02,19.14c-4.2,13.33-13.75,24.25-26.87,30.76L1231,737.54
				L1215.71,709.54z"/>
			<path d="M1647.56,473.14l-459.37,227.71l34.46,63.14l393.11-194.87C1652.36,550.99,1666.59,508.02,1647.56,473.14L1647.56,473.14
				z"/>
		</g>
	</g>
	<rect x="831.4" y="219.77" class="st3" width="356.36" height="514.3"/>
	<text transform="matrix(0.8361 0 0 1 831.3984 693.5322)" class="st4 st5">A</text>
</g>
<path class="st1" d="M1734.73,1033H185.27c-45.99,0-83.27-37.28-83.27-83.27v0c0-5.73,2.32-10.91,6.07-14.66
	c0,0,5.18-5.18,14.66-6.07c24.37-2.29,681.29,25.95,836.27,26c155.53,0.05,818.23-27.98,838.27-26c9.54,0.94,14.66,6.07,14.66,6.07
	c3.75,3.75,6.07,8.94,6.07,14.66v0C1818,995.72,1780.72,1033,1734.73,1033z"/>
<path class="st1" d="M1790,566"/>
</svg>
